<?xml version="1.0" encoding="UTF-8"?>
<svg version="1.1" xmlns="http://www.w3.org/2000/svg" width="512" height="512">
<path d="M0 0 C3.10625702 2.85278645 5.77535108 5.98062173 8.44140625 9.2421875 C9.11494141 9.10119629 9.78847656 8.96020508 10.48242188 8.81494141 C36.58486498 3.38360483 57.60273693 1.53690874 83.81640625 7.0859375 C84.79279053 7.28622559 85.7691748 7.48651367 86.77514648 7.69287109 C88.39566316 8.02673819 90.01345002 8.37482236 91.62524414 8.74853516 C93.64654865 9.21110927 93.64654865 9.21110927 96.44140625 9.2421875 C98.48985025 7.83253839 98.48985025 7.83253839 99.87890625 5.6171875 C108.07201408 -4.78733439 120.85966774 -7.89851144 133.578125 -9.44140625 C153.62151091 -11.0829778 173.3072148 -8.37122854 192.94140625 -4.3828125 C194.31752075 -4.10594604 194.31752075 -4.10594604 195.72143555 -3.82348633 C209.46244743 -0.88116122 222.78439652 3.96737974 236.09545898 8.41674805 C238.3734449 9.17786277 240.6524834 9.93576037 242.93164062 10.69335938 C246.68322705 11.9426964 250.43076805 13.20353323 254.17532349 14.4737854 C255.71723294 14.99662882 257.25980164 15.51753123 258.802948 16.03671265 C261.12012135 16.81862927 263.4334633 17.61101092 265.74609375 18.40625 C266.44367294 18.64016953 267.14125214 18.87408905 267.85997009 19.11509705 C273.68804166 21.14071246 278.08907106 23.90889973 282.44140625 28.2421875 C283.27865234 29.07556641 283.27865234 29.07556641 284.1328125 29.92578125 C300.7149464 47.92092907 302.01217219 75.66584868 301.81640625 98.8046875 C301.80992569 100.25610641 301.80992569 100.25610641 301.80331421 101.73684692 C301.6010134 140.39625268 295.5408495 188.46273362 267.796875 217.97265625 C261.42566811 224.11141447 256.33753799 226.95977062 247.44140625 227.2421875 C247.74884766 228.7271875 247.74884766 228.7271875 248.0625 230.2421875 C248.33479386 231.57548848 248.60692027 232.90882368 248.87890625 234.2421875 C249.01361328 234.89058594 249.14832031 235.53898438 249.28710938 236.20703125 C249.48530273 237.18349609 249.48530273 237.18349609 249.6875 238.1796875 C249.80794678 238.76621094 249.92839355 239.35273438 250.05249023 239.95703125 C251.08860745 246.04495161 251.61121674 252.02260982 251.6796875 258.1953125 C251.68943604 258.92940842 251.69918457 259.66350433 251.70922852 260.41984558 C251.99474767 287.46225682 250.37942545 315.50711657 231.0546875 336.70703125 C223.13606274 344.2421875 223.13606274 344.2421875 219.44140625 344.2421875 C219.11140625 345.2321875 218.78140625 346.2221875 218.44140625 347.2421875 C215.9559927 348.70976503 213.53469322 349.99711919 210.94140625 351.2421875 C210.21397217 351.60610596 209.48653809 351.97002441 208.73706055 352.3449707 C204.91920246 354.21538496 201.44424037 355.59731213 197.25390625 356.4296875 C195.14634694 356.9315489 195.14634694 356.9315489 193.44140625 358.2421875 C191.78139247 361.3321588 190.7002666 364.40734601 189.6171875 367.7421875 C187.06955632 375.32583382 183.39852572 381.86625042 177.44140625 387.2421875 C176.32650424 388.52459941 175.22332723 389.81725307 174.12890625 391.1171875 C162.30401302 404.64222632 146.36914832 413.16205475 128.44140625 415.2421875 C124.48215644 415.40513189 120.52863781 415.42727445 116.56640625 415.4296875 C115.51582031 415.44193359 114.46523438 415.45417969 113.3828125 415.46679688 C107.37062622 415.47808383 102.19810332 414.99693974 96.44140625 413.2421875 C96.46759033 413.86037354 96.49377441 414.47855957 96.52075195 415.11547852 C97.1687808 432.79272099 96.17948361 449.4576026 83.59765625 463.265625 C74.5194361 471.8034749 64.78538997 473.42771873 52.75390625 473.4921875 C51.33948242 473.523125 51.33948242 473.523125 49.89648438 473.5546875 C38.47367867 473.6174933 29.15904246 470.47126834 20.72265625 462.6484375 C10.91233591 452.03727468 7.92183997 438.63208726 8.25390625 424.6171875 C8.26744141 423.51761719 8.28097656 422.41804688 8.29492188 421.28515625 C8.32989825 418.60363418 8.37897553 415.92318677 8.44140625 413.2421875 C7.35730469 413.56445312 6.27320313 413.88671875 5.15625 414.21875 C-14.95795324 419.21085403 -37.14661943 414.61467365 -54.77197266 404.34960938 C-62.67825948 399.44896479 -69.63357237 393.19281928 -74.55859375 385.2421875 C-74.55859375 384.5821875 -74.55859375 383.9221875 -74.55859375 383.2421875 C-75.54859375 382.9121875 -76.53859375 382.5821875 -77.55859375 382.2421875 C-82.34582116 375.6000483 -88.55859375 365.72456928 -88.55859375 357.2421875 C-89.50734375 357.1596875 -90.45609375 357.0771875 -91.43359375 356.9921875 C-100.05106699 355.72644193 -108.62054224 351.40882161 -115.55859375 346.2421875 C-115.55859375 345.5821875 -115.55859375 344.9221875 -115.55859375 344.2421875 C-116.57953125 343.9328125 -116.57953125 343.9328125 -117.62109375 343.6171875 C-130.45089821 337.61174711 -137.87034325 322.99780204 -142.55859375 310.2421875 C-145.85616552 299.85411851 -147.70032705 289.40414888 -147.76171875 278.51171875 C-147.76850647 277.68665329 -147.77529419 276.86158783 -147.7822876 276.01152039 C-147.79917746 273.35920406 -147.80547727 270.70705403 -147.80859375 268.0546875 C-147.81093018 267.15733887 -147.8132666 266.25999023 -147.81567383 265.33544922 C-147.82841689 252.41862226 -147.35734848 239.90322082 -144.55859375 227.2421875 C-145.62335938 227.12746094 -146.688125 227.01273438 -147.78515625 226.89453125 C-157.24436881 225.25924295 -163.9673936 217.60426599 -169.55859375 210.2421875 C-181.36490646 192.16512261 -188.02697606 171.70218936 -192.30859375 150.6796875 C-192.60648804 149.22888794 -192.60648804 149.22888794 -192.91040039 147.7487793 C-195.85662587 132.51294516 -196.91229071 117.37172656 -196.87426758 101.8737793 C-196.87109155 99.17781634 -196.89475004 96.48293938 -196.91992188 93.78710938 C-197.00563712 70.43436324 -193.09607382 45.60905863 -177.23046875 27.56640625 C-170.10368136 21.36693476 -161.36370833 18.48734941 -152.55859375 15.4296875 C-150.72059204 14.78338379 -150.72059204 14.78338379 -148.84545898 14.12402344 C-137.77463414 10.24809508 -126.63791093 6.58219405 -115.42822266 3.12841797 C-113.58454016 2.55903159 -111.74286513 1.98308076 -109.90380859 1.39892578 C-78.76619251 -8.47194276 -29.53549744 -20.29156313 0 0 Z " fill="#D89D81" transform="translate(203.55859375,38.7578125)"/>
<path d="M0 0 C0.8790802 0.00154083 1.7581604 0.00308167 2.66387939 0.00466919 C30.28265056 0.11866286 55.45807725 3.21203134 81.375 13.375 C82.30119141 13.73561523 83.22738281 14.09623047 84.18164062 14.46777344 C89.40161718 16.52546442 94.39194195 18.79119212 99.375 21.375 C99.375 22.035 99.375 22.695 99.375 23.375 C100.365 23.7153125 100.365 23.7153125 101.375 24.0625 C107.7005519 26.82992896 112.61095631 30.37856393 117.375 35.375 C118.01953125 35.89191406 118.6640625 36.40882813 119.328125 36.94140625 C129.26061051 44.98116287 136.43987101 56.26397196 140.375 68.375 C140.74367188 69.27476562 141.11234375 70.17453125 141.4921875 71.1015625 C145.44090007 81.64054018 144.92745209 92.28028305 144.375 103.375 C144.31570313 104.59832031 144.25640625 105.82164062 144.1953125 107.08203125 C142.87997412 119.83439723 136.44248796 132.4317242 127.375 141.375 C126.22186623 142.72295545 125.0761574 144.07729387 123.9375 145.4375 C112.10404857 158.84176356 96.21714266 167.30479924 78.375 169.375 C74.41575019 169.53794439 70.46223156 169.56008695 66.5 169.5625 C65.44941406 169.57474609 64.39882813 169.58699219 63.31640625 169.59960938 C57.30421997 169.61089633 52.13169707 169.12975224 46.375 167.375 C46.40118408 167.99318604 46.42736816 168.61137207 46.4543457 169.24829102 C47.10237455 186.92553349 46.11307736 203.5904151 33.53125 217.3984375 C24.45302985 225.9362874 14.71898372 227.56053123 2.6875 227.625 C1.27307617 227.6559375 1.27307617 227.6559375 -0.16992188 227.6875 C-11.59272758 227.7503058 -20.90736379 224.60408084 -29.34375 216.78125 C-39.15407034 206.17008718 -42.14456628 192.76489976 -41.8125 178.75 C-41.79896484 177.65042969 -41.78542969 176.55085937 -41.77148438 175.41796875 C-41.736508 172.73644668 -41.68743072 170.05599927 -41.625 167.375 C-42.70910156 167.69726562 -43.79320312 168.01953125 -44.91015625 168.3515625 C-65.02435949 173.34366653 -87.21302568 168.74748615 -104.83837891 158.48242188 C-112.74466573 153.58177729 -119.69997862 147.32563178 -124.625 139.375 C-124.625 138.715 -124.625 138.055 -124.625 137.375 C-125.615 137.045 -126.605 136.715 -127.625 136.375 C-136.1691687 124.52021373 -139.27219816 112.87501456 -139.578125 98.52832031 C-139.62309014 96.46273431 -139.70009307 94.40036697 -139.78125 92.3359375 C-139.97422475 84.44005379 -139.24398479 77.81674945 -136.625 70.375 C-136.30789062 69.36050781 -135.99078125 68.34601563 -135.6640625 67.30078125 C-127.5703106 43.50744677 -107.17845826 27.58339204 -85.43359375 16.66796875 C-73.59352104 10.91667172 -61.43850512 7.24723292 -48.625 4.375 C-47.78066406 4.17132813 -46.93632812 3.96765625 -46.06640625 3.7578125 C-31.0350824 0.37120574 -15.34288176 -0.04121771 0 0 Z " fill="#F3C6B4" transform="translate(253.625,284.625)"/>
<path d="M0 0 C0.91740967 0.18457764 1.83481934 0.36915527 2.7800293 0.55932617 C16.52104118 3.50165128 29.84299027 8.35019224 43.15405273 12.79956055 C45.43203865 13.56067527 47.71107715 14.31857287 49.99023438 15.07617188 C53.7418208 16.3255089 57.4893618 17.58634573 61.23391724 18.8565979 C62.77582669 19.37944132 64.31839539 19.90034373 65.86154175 20.41952515 C68.1787151 21.20144177 70.49205705 21.99382342 72.8046875 22.7890625 C73.50226669 23.02298203 74.19984589 23.25690155 74.91856384 23.49790955 C80.74663541 25.52352496 85.14766481 28.29171223 89.5 32.625 C90.33724609 33.45837891 90.33724609 33.45837891 91.19140625 34.30859375 C107.77354015 52.30374157 109.07076594 80.04866118 108.875 103.1875 C108.87067963 104.15511261 108.86635925 105.12272522 108.86190796 106.11965942 C108.65960715 144.77906518 102.59944325 192.84554612 74.85546875 222.35546875 C69.30822778 227.70032282 64.32629017 231.13199102 56.54296875 231.8125 C54.12873474 231.59092594 52.63262374 230.75159071 50.5 229.625 C49.09384343 229.26817455 47.67552695 228.95670923 46.25 228.6875 C32.63160866 225.71055964 23.20500151 217.44182051 15.65234375 205.76953125 C12.44362458 200.46559095 9.93369707 195.69064144 8.5 189.625 C7.90621059 188.05852697 7.30050287 186.49655455 6.6875 184.9375 C-0.86153411 164.41091287 -3.59711579 142.66610942 -3.53515625 120.890625 C-3.54279426 118.64175377 -3.55277826 116.39290273 -3.56323242 114.14404297 C-3.56274181 112.6241305 -3.54960084 111.10417243 -3.52416992 109.58447266 C-3.3626276 98.71348797 -4.85909629 91.873099 -12.5 83.625 C-13.58307371 82.30506717 -14.66285523 80.98242126 -15.73828125 79.65625 C-16.75695065 78.4739095 -17.78172465 77.29680142 -18.8125 76.125 C-19.36881104 75.49045898 -19.92512207 74.85591797 -20.49829102 74.20214844 C-29.65359101 63.85006868 -39.43141657 54.87711909 -50.5 46.625 C-51.06058105 46.2036377 -51.62116211 45.78227539 -52.19873047 45.34814453 C-65.26827123 35.57556238 -79.06391763 26.83749508 -93.97265625 20.16015625 C-96.5 18.625 -96.5 18.625 -97.5859375 16.7109375 C-97.39297643 12.02724613 -92.70945839 8.66553953 -89.5 5.625 C-66.34382625 -13.37738588 -26.57911604 -5.39918198 0 0 Z " fill="#662113" transform="translate(396.5,34.375)"/>
<path d="M0 0 C2.18322063 1.95009707 4.17854937 3.92903887 6.1171875 6.12109375 C6.72175781 6.79269531 7.32632813 7.46429688 7.94921875 8.15625 C9.3046875 10.05859375 9.3046875 10.05859375 9.3046875 13.05859375 C8.3353125 13.52007812 7.3659375 13.9815625 6.3671875 14.45703125 C-8.02215002 21.41323777 -21.16483548 29.77343567 -34.11303711 39.12402344 C-34.78471924 39.60774414 -35.45640137 40.09146484 -36.1484375 40.58984375 C-37.03257324 41.23276367 -37.03257324 41.23276367 -37.93457031 41.88867188 C-39.78954612 43.1212071 -41.68569433 44.10289395 -43.6953125 45.05859375 C-43.6953125 45.71859375 -43.6953125 46.37859375 -43.6953125 47.05859375 C-45.35644531 48.49072266 -45.35644531 48.49072266 -47.6484375 50.16015625 C-55.30553808 55.95835947 -61.87063155 62.78348566 -68.46240234 69.74462891 C-70.49238876 71.84830388 -72.5878709 73.84728936 -74.71484375 75.8515625 C-84.55878602 85.87037378 -84.95836919 96.19029511 -84.86791992 109.53540039 C-84.84270594 111.68529027 -84.80886044 113.83458605 -84.76499939 115.98417664 C-84.64616568 122.22319629 -84.98149942 128.35054825 -85.5703125 134.55859375 C-85.65571289 135.47785645 -85.74111328 136.39711914 -85.82910156 137.34423828 C-86.66263713 145.67201636 -88.04449896 153.8583569 -89.6953125 162.05859375 C-89.98218039 163.51814873 -90.26863388 164.97778521 -90.5546875 166.4375 C-91.25338785 169.98093793 -91.96918678 173.52066203 -92.6953125 177.05859375 C-93.3553125 177.05859375 -94.0153125 177.05859375 -94.6953125 177.05859375 C-94.62183594 177.88875 -94.54835938 178.71890625 -94.47265625 179.57421875 C-94.75468971 183.98779497 -96.222688 186.9418572 -98.2578125 190.80859375 C-98.62132813 191.51306641 -98.98484375 192.21753906 -99.359375 192.94335938 C-102.36511864 198.65636688 -105.62714789 204.03001611 -109.6953125 209.05859375 C-110.26378906 209.76371094 -110.83226563 210.46882812 -111.41796875 211.1953125 C-119.91526699 220.66682327 -131.33130057 224.69505145 -143.6953125 226.05859375 C-144.53320312 226.27644531 -145.37109375 226.49429688 -146.234375 226.71875 C-150.99910192 227.3767361 -154.79130598 224.54949361 -158.6953125 222.05859375 C-179.36354259 206.13640168 -187.58536644 174.52583595 -192.5078125 150.30859375 C-192.70262207 149.35291504 -192.89743164 148.39723633 -193.09814453 147.41259766 C-195.99904864 132.22821763 -197.0488662 117.12974259 -197.01098633 101.69018555 C-197.0078103 98.99422259 -197.03146879 96.29934563 -197.05664062 93.60351562 C-197.14235587 70.25076949 -193.23279257 45.42546488 -177.3671875 27.3828125 C-170.24040011 21.18334101 -161.50042708 18.30375566 -152.6953125 15.24609375 C-150.85731079 14.59979004 -150.85731079 14.59979004 -148.98217773 13.94042969 C-137.91135289 10.06450133 -126.77462968 6.3986003 -115.56494141 2.94482422 C-113.72125891 2.37543784 -111.87958388 1.79948701 -110.04052734 1.21533203 C-79.29968902 -8.52975485 -28.94676635 -20.85006214 0 0 Z " fill="#662113" transform="translate(203.6953125,38.94140625)"/>
<path d="M0 0 C4.87335192 1.94934077 6.56552788 5.83228099 9.125 10.25 C16.09817169 21.93965351 24.4404883 34.28347487 38.125 38.25 C38.125 38.91 38.125 39.57 38.125 40.25 C39.775 40.58 41.425 40.91 43.125 41.25 C43.87674843 59.86791725 43.60877334 77.64704536 30.28125 92.2734375 C21.20302985 100.8112874 11.46898372 102.43553123 -0.5625 102.5 C-1.97692383 102.5309375 -1.97692383 102.5309375 -3.41992188 102.5625 C-14.84272758 102.6253058 -24.15736379 99.47908084 -32.59375 91.65625 C-43.74135685 79.59863443 -46.49965289 62.87111721 -45.9375 47.02734375 C-45.48361028 42.98249784 -45.0154 40.62154366 -41.875 37.94140625 C-38.6983238 35.91701302 -35.28188156 34.50307891 -31.79003906 33.11279297 C-20.70601033 28.1190452 -13.96799131 15.49764722 -8.33203125 5.37890625 C-6.02720547 2.01126536 -4.1005457 0.35656919 0 0 Z " fill="#DC2D43" transform="translate(256.875,409.75)"/>
<path d="M0 0 C0.67675781 0.41378906 1.35351562 0.82757813 2.05078125 1.25390625 C3.6875 2.4375 3.6875 2.4375 4.6875 4.4375 C6.21528365 13.96878663 2.86828529 20.6089702 -2.3125 28.4375 C-5.11618892 32.30162477 -8.11359559 35.89547878 -11.3125 39.4375 C-12.07304687 40.29214844 -12.83359375 41.14679688 -13.6171875 42.02734375 C-20.33685194 49.17662608 -30.11419825 58.60765259 -40.4375 59.4375 C-54.8193421 57.77715725 -66.18132631 43.79678341 -74.8671875 33.37109375 C-76.81478185 30.7877752 -78.60097014 28.1818496 -80.3125 25.4375 C-80.83585938 24.60863281 -81.35921875 23.77976562 -81.8984375 22.92578125 C-85.29845937 16.94286983 -86.69563775 11.28679811 -85.3125 4.4375 C-81.5087403 -0.77908473 -75.96999058 -3.49303168 -70 -5.6875 C-68.67548828 -6.18636719 -68.67548828 -6.18636719 -67.32421875 -6.6953125 C-47.26953185 -12.46981379 -17.82784968 -11.04288164 0 0 Z " fill="#2C3134" transform="translate(296.3125,323.5625)"/>
<path d="M0 0 C2.88378366 1.69181975 4.92172605 3.63573491 7.05078125 6.203125 C7.75203125 6.986875 8.45328125 7.770625 9.17578125 8.578125 C13.67851788 14.88195628 14.51044509 20.16353888 14.484375 27.72265625 C14.48961685 28.62126877 14.4948587 29.51988129 14.5002594 30.44572449 C14.50665587 32.33921277 14.50537352 34.23274091 14.49682617 36.1262207 C14.48833636 38.99699087 14.51707781 41.86575505 14.54882812 44.73632812 C14.62432873 64.48619064 14.62432873 64.48619064 7.80078125 73.015625 C-1.30700149 80.26045218 -9.12478153 83.53681152 -20.94921875 82.203125 C-27.57728172 80.09337272 -32.4946041 76.47832656 -36.94921875 71.203125 C-36.94921875 70.543125 -36.94921875 69.883125 -36.94921875 69.203125 C-37.60921875 69.203125 -38.26921875 69.203125 -38.94921875 69.203125 C-42.77341927 60.38887998 -42.40692897 51.26649224 -42.34033203 41.85327148 C-42.32423409 39.14320697 -42.34024718 36.43462889 -42.359375 33.72460938 C-42.35739266 31.97655926 -42.35354919 30.22851006 -42.34765625 28.48046875 C-42.35676529 27.28477516 -42.35676529 27.28477516 -42.36605835 26.06492615 C-42.27429052 18.61330969 -40.72119456 11.26903153 -35.54296875 5.6171875 C-25.23855297 -3.52545591 -12.80693224 -5.95281302 0 0 Z " fill="#2A3033" transform="translate(198.94921875,187.796875)"/>
<path d="M0 0 C0 0.66 0 1.32 0 2 C0.56847656 2.13535156 1.13695312 2.27070313 1.72265625 2.41015625 C7.93134493 4.14112621 12.27430992 6.65168577 16 12 C19.44236455 18.29372806 20.59987411 23.58813608 20.53125 30.71484375 C20.5350769 31.61062637 20.53890381 32.506409 20.54284668 33.42933655 C20.54555067 35.3108941 20.53829633 37.19249022 20.52148438 39.07397461 C20.50007775 41.92713703 20.52132425 44.77777464 20.546875 47.63085938 C20.56459381 58.72113422 20.48439679 68.20856362 12.75 76.875 C5.86891986 83.16288358 -1.61723441 85.39855933 -10.80078125 85.265625 C-18.30918604 84.64221654 -23.35955597 82.11216561 -28.4375 76.5625 C-33.04013601 71.03741502 -36.07304032 66.22057223 -36.17700195 58.94091797 C-36.18983719 58.15264618 -36.20267242 57.36437439 -36.21589661 56.55221558 C-36.22328354 55.70740631 -36.23067047 54.86259705 -36.23828125 53.9921875 C-36.246353 53.11152618 -36.25442474 52.23086487 -36.26274109 51.32351685 C-36.27655773 49.45918735 -36.28729068 47.59483281 -36.29516602 45.73046875 C-36.30665726 43.83748889 -36.32706357 41.94454071 -36.35668945 40.05175781 C-36.69143651 18.65038751 -36.69143651 18.65038751 -30.17578125 9.4140625 C-20.72870029 0.34328037 -12.77219594 -0.60579585 0 0 Z " fill="#2A3033" transform="translate(335,185)"/>
<path d="M0 0 C4.87335192 1.94934077 6.56552788 5.83228099 9.125 10.25 C16.09817169 21.93965351 24.4404883 34.28347487 38.125 38.25 C38.125 38.91 38.125 39.57 38.125 40.25 C39.775 40.58 41.425 40.91 43.125 41.25 C43.125 49.17 43.125 57.09 43.125 65.25 C42.795 65.25 42.465 65.25 42.125 65.25 C42.125 63.6 42.125 61.95 42.125 60.25 C41.33996094 60.20101562 40.55492187 60.15203125 39.74609375 60.1015625 C27.80605282 59.2518418 15.39582539 56.62360211 7.125 47.25 C6.10195052 45.59738161 5.09883946 43.93208635 4.125 42.25 C2.23272198 39.92623477 2.23272198 39.92623477 -0.9375 40 C-5.98555545 40.83256029 -8.58803063 44.94805368 -11.6640625 48.70703125 C-17.84283562 55.81371199 -25.70387028 58.96308341 -34.875 60.25 C-38.21886147 60.39477613 -41.53121214 60.35254815 -44.875 60.25 C-46.657447 47.27114515 -46.657447 47.27114515 -44.875 41.25 C-41.60058642 37.15850742 -36.4522732 35.32415252 -31.79003906 33.20947266 C-20.73074909 27.66854844 -14.11391573 15.75963833 -8.33203125 5.37890625 C-6.02720547 2.01126536 -4.1005457 0.35656919 0 0 Z " fill="#BF1B32" transform="translate(256.875,409.75)"/>
<path d="M0 0 C0 0.66 0 1.32 0 2 C0.74378906 2.2371875 1.48757812 2.474375 2.25390625 2.71875 C10.66905495 6.64502137 16.24297847 18.42449468 20.2265625 26.48046875 C21.1794646 29.58461955 21.13287409 30.95247508 20 34 C18.34170576 36.02839797 16.71258483 37.84051653 14.875 39.6875 C9.99684049 44.77484848 5.84191105 50.07322936 2 56 C0.515 55.505 0.515 55.505 -1 55 C-2.21145794 52.39138618 -3.23090291 49.88722957 -4.1875 47.1875 C-4.46013672 46.46240234 -4.73277344 45.73730469 -5.01367188 44.99023438 C-6.34916832 41.33184437 -7 38.99490577 -7 35 C-7.66 35 -8.32 35 -9 35 C-9.36931641 33.90945312 -9.36931641 33.90945312 -9.74609375 32.796875 C-11.12861609 29.71311801 -12.80771742 27.75440461 -15.0625 25.25 C-18.32427679 21.25150131 -20.18636739 18.31383792 -20.296875 13.1015625 C-19.66872822 8.65494447 -17.85365469 5.61895422 -14.48828125 2.6796875 C-9.83654859 -0.42146761 -5.44807204 -0.44474058 0 0 Z " fill="#3A0F09" transform="translate(119,71)"/>
<path d="M0 0 C0.79921875 0.01804687 1.5984375 0.03609375 2.421875 0.0546875 C3.02515625 0.07789062 3.6284375 0.10109375 4.25 0.125 C4.25 0.785 4.25 1.445 4.25 2.125 C4.9925 2.351875 5.735 2.57875 6.5 2.8125 C10.05512083 4.50926222 11.3334718 5.64685622 13.25 9.125 C13.57757738 12.81674511 13.48299108 16.42950265 13.25 20.125 C12.59 20.125 11.93 20.125 11.25 20.125 C10.99089844 20.68703125 10.73179687 21.2490625 10.46484375 21.828125 C9.11888852 24.37288923 7.52515141 26.56199982 5.8125 28.875 C3.21350647 32.54258798 1.3219721 35.85719431 -0.06640625 40.1171875 C-0.85396915 42.43037224 -1.8472848 44.59614622 -2.875 46.8125 C-4.27627759 49.90386813 -5.31196646 52.73024006 -5.75 56.125 C-6.08 55.465 -6.41 54.805 -6.75 54.125 C-7.31847656 53.88265625 -7.88695312 53.6403125 -8.47265625 53.390625 C-11.77376737 51.55604523 -13.8399057 48.76186286 -16.1875 45.875 C-16.65220703 45.31425781 -17.11691406 44.75351563 -17.59570312 44.17578125 C-18.52676155 43.05123927 -19.45178932 41.92167596 -20.37060547 40.78710938 C-21.28887127 39.68063972 -22.23640025 38.59780908 -23.21142578 37.54101562 C-25.3012465 35.24140311 -26.66207707 33.64468735 -27.1875 30.5390625 C-25.29086562 20.07370495 -16.67488926 8.9492102 -8.75 2.125 C-5.71012765 0.28948386 -3.5329274 -0.10390963 0 0 Z " fill="#390F09" transform="translate(398.75,70.875)"/>
<path d="M0 0 C4.30545186 2.23552308 7.56243355 4.78113499 10 9 C10.92749911 14.62752269 10.22701728 19.21511231 7 24 C4.61752441 26.92045394 2.90719583 27.86536761 -0.81640625 28.41796875 C-5.93058416 28.65014615 -8.96341049 28.75203552 -13.1875 25.6875 C-15 23 -15 23 -16 20 C-16.66 20 -17.32 20 -18 20 C-18.90932013 10.68788834 -18.90932013 10.68788834 -16.8046875 6.78125 C-12.12317249 1.22930255 -7.42723579 -1.16140174 0 0 Z " fill="#D99F83" transform="translate(331,384)"/>
<path d="M0 0 C4.30742759 2.23654894 7.64038378 4.73453991 10 9 C10.32329511 12.69182153 10.23297693 16.30472697 10 20 C9.34 20 8.68 20 8 20 C7.773125 20.5775 7.54625 21.155 7.3125 21.75 C5.49614802 24.86374625 4.16917736 26.18904151 1 28 C-4.08702724 28.7649665 -8.42711042 28.85198185 -13 26.375 C-16.991698 21.63485862 -18.68651235 17.42646361 -18.48828125 11.25 C-17.61695973 7.23495045 -15.10588074 4.57161227 -12 2 C-8.12422569 -0.30847912 -4.43099569 -0.6928777 0 0 Z " fill="#D99F83" transform="translate(189,384)"/>
<path d="M0 0 C1.9375 1.1875 1.9375 1.1875 3 3 C3.5 5.9375 3.5 5.9375 3 9 C0.38288852 11.92500695 -1.24479874 12.8791678 -5.125 13.5 C-8 13 -8 13 -9.875 11.4375 C-11.43027542 8.0677366 -11.46644969 5.66496184 -11 2 C-7.88297247 -1.98979524 -4.57145176 -1.16364227 0 0 Z " fill="#DAA185" transform="translate(367,385)"/>
<path d="M0 0 C2.86189924 2.62985336 3.88404096 4.27525599 4.5 8.125 C4 11 4 11 2.375 12.875 C-0.56637697 14.26828383 -2.78333296 14.21931821 -6 14 C-6.66 12.68 -7.32 11.36 -8 10 C-8.66 10 -9.32 10 -10 10 C-10.3125 7.25 -10.3125 7.25 -10 4 C-6.97613607 0.71694774 -4.49365515 -1.03699734 0 0 Z " fill="#DAA085" transform="translate(152,384)"/>
<path d="M0 0 C2.53301531 0.04993399 3.86807975 0.11351112 6.125 1.3125 C7.73356522 4.42909511 7.54713381 6.81262469 7.125 10.25 C5.5 12.6875 5.5 12.6875 3.125 14.25 C0.0625 14.75 0.0625 14.75 -2.875 14.25 C-4.8125 12.8125 -4.8125 12.8125 -5.875 10.25 C-5.82321167 0.37569108 -5.82321167 0.37569108 0 0 Z " fill="#DAA085" transform="translate(333.875,355.75)"/>
<path d="M0 0 C1.9375 1.0625 1.9375 1.0625 3 3 C3.50030235 6.93094707 3.5996142 9.1005787 1.375 12.4375 C-1.69861159 14.45961289 -3.38925156 14.61459548 -7 14 C-9.83268842 11.63942631 -9.98743809 10.11933812 -10.375 6.4375 C-10 3 -10 3 -8.9375 1.0625 C-5.88023824 -0.6140629 -3.4093712 -0.36528977 0 0 Z " fill="#DAA084" transform="translate(167,356)"/>
<path d="M0 0 C0.99 0.495 0.99 0.495 2 1 C1.01 1.495 1.01 1.495 0 2 C0 1.34 0 0.68 0 0 Z M-2 2 C-1.34 2.33 -0.68 2.66 0 3 C-9.57 12.57 -19.14 22.14 -29 32 C-29.66 31.67 -30.32 31.34 -31 31 C-25.00828052 24.32351258 -18.8965038 17.79154283 -12.5625 11.4375 C-11.97194824 10.84243652 -11.38139648 10.24737305 -10.77294922 9.63427734 C-7.98502682 6.85592721 -5.25131647 4.24476641 -2 2 Z " fill="#C2866D" transform="translate(160,84)"/>
<path d="M0 0 C0.66 0.33 1.32 0.66 2 1 C0.700625 1.8353125 0.700625 1.8353125 -0.625 2.6875 C-3.95945073 4.90252798 -6.96205756 7.39604933 -10 10 C-8.64844718 5.57673622 -6.80109562 3.59587018 -3 1 C-2.01 0.67 -1.02 0.34 0 0 Z " fill="#605856" transform="translate(221,320)"/>
</svg>
